# xmcd
#
# Track frame offsets: 
#        150
#        16097
#        27855
#        41127
#        55432
#        67692
#        77330
#        90782
#        103852
#        115805
#        128627
#        137300
#        156335
#        168080
#        178857
#        197850
#        210225
#        223557
#        236060
#
# Disc length: 3297 seconds
#
# Revision: 0
# Processed by: cddbd v1.5.2PL0 Copyright (c) Steve Scherf et al.
# Submitted via: ExactAudioCopy v0.99pb4
#
DISCID=ee0cdf13
DTITLE=Various Artist - The Country Collection [CD 2)
DYEAR=1999
DGENRE=Country
TTITLE0=Kathy Mattea, Heart of the country
TTITLE1=Waylon Jennings, Crying
TTITLE2=Johnny Tillotson, Let it be me
TTITLE3=Willie Nelson, Face of a fighter
TTITLE4=Kitty Wells, Lonely side of town
TTITLE5=Dottie West, Rocky top
TTITLE6=Kenny Rogers, Shine on ruby mountain
TTITLE7=Moe Bandy, Rodeo Romeo
TTITLE8=Dolly Parton, Two little orphans
TTITLE9=Johnny Russell, Chrystal chandaliers
TTITLE10=Jimmy Dean, Big bad John
TTITLE11=Tanya Tucker, Delta dawn
TTITLE12=Faron Young, Wine me up
TTITLE13=Osmond Brothers, Gonna be a heartache tonight
TTITLE14=Bertie Higgins, Key largo
TTITLE15=Patty Loveless, Lonely days, lonely nights
TTITLE16=Charlie Rich, Behind closed doors
TTITLE17=Lyn Anderson, Rose garden
TTITLE18=Porter Wagoner, Ole slewfoot
EXTD=
EXTT0=
EXTT1=
EXTT2=
EXTT3=
EXTT4=
EXTT5=
EXTT6=
EXTT7=
EXTT8=
EXTT9=
EXTT10=
EXTT11=
EXTT12=
EXTT13=
EXTT14=
EXTT15=
EXTT16=
EXTT17=
EXTT18=
PLAYORDER=
